<?xml version="1.0" encoding="UTF-8" standalone="no"?>
<!DOCTYPE svg PUBLIC "-//W3C//DTD SVG 1.1//EN"
 "http://www.w3.org/Graphics/SVG/1.1/DTD/svg11.dtd">
<!-- Generated by graphviz version 2.47.0 (20210316.0004)
 -->
<!-- Title: dependencies Pages: 1 -->
<svg width="1214pt" height="211pt"
 viewBox="0.00 0.00 1214.00 211.00" xmlns="http://www.w3.org/2000/svg" xmlns:xlink="http://www.w3.org/1999/xlink">
<g id="graph0" class="graph" transform="scale(1 1) rotate(0) translate(4 207)">
<title>dependencies</title>
<polygon fill="white" stroke="transparent" points="-4,4 -4,-207 1210,-207 1210,4 -4,4"/>
<text text-anchor="start" x="582.01" y="-42.4" font-family="Times-12" font-weight="bold" font-size="14.00">Legend</text>
<polygon fill="#ffffb3" stroke="transparent" points="369,-10 369,-30 389,-30 389,-10 369,-10"/>
<text text-anchor="start" x="392.63" y="-15.4" font-family="Times-12" font-size="14.00"> &#160;Declarations</text>
<polygon fill="#8dd3c7" stroke="transparent" points="482,-10 482,-30 502,-30 502,-10 482,-10"/>
<text text-anchor="start" x="505.73" y="-15.4" font-family="Times-12" font-size="14.00"> &#160;Module</text>
<polygon fill="#80b1d3" stroke="transparent" points="568,-10 568,-30 588,-30 588,-10 568,-10"/>
<text text-anchor="start" x="591.78" y="-15.4" font-family="Times-12" font-size="14.00"> &#160;Bootstrap</text>
<polygon fill="#fdb462" stroke="transparent" points="665,-10 665,-30 685,-30 685,-10 665,-10"/>
<text text-anchor="start" x="688.67" y="-15.4" font-family="Times-12" font-size="14.00"> &#160;Providers</text>
<polygon fill="#fb8072" stroke="transparent" points="761,-10 761,-30 781,-30 781,-10 761,-10"/>
<text text-anchor="start" x="784.73" y="-15.4" font-family="Times-12" font-size="14.00"> &#160;Exports</text>
<g id="clust1" class="cluster">
<title>cluster_AuthModule</title>
<polygon fill="none" stroke="black" stroke-dasharray="1,5" points="8,-70 8,-195 1198,-195 1198,-70 8,-70"/>
</g>
<g id="clust3" class="cluster">
<title>cluster_AuthModule_imports</title>
<polygon fill="none" stroke="black" points="1088,-78 1088,-130 1190,-130 1190,-78 1088,-78"/>
</g>
<g id="clust6" class="cluster">
<title>cluster_AuthModule_providers</title>
<polygon fill="none" stroke="black" points="16,-78 16,-130 1080,-130 1080,-78 16,-78"/>
</g>
<!-- UserModule -->
<g id="node1" class="node">
<title>UserModule</title>
<polygon fill="#8dd3c7" stroke="black" points="1181.98,-122 1178.98,-126 1157.98,-126 1154.98,-122 1096.02,-122 1096.02,-86 1181.98,-86 1181.98,-122"/>
<text text-anchor="middle" x="1139" y="-99.8" font-family="Times,serif" font-size="14.00">UserModule</text>
</g>
<!-- AuthModule -->
<g id="node2" class="node">
<title>AuthModule</title>
<polygon fill="#8dd3c7" stroke="black" points="692.55,-187 689.55,-191 668.55,-191 665.55,-187 605.45,-187 605.45,-151 692.55,-151 692.55,-187"/>
<text text-anchor="middle" x="649" y="-164.8" font-family="Times,serif" font-size="14.00">AuthModule</text>
</g>
<!-- UserModule&#45;&gt;AuthModule -->
<g id="edge1" class="edge">
<title>UserModule&#45;&gt;AuthModule</title>
<path fill="none" stroke="black" d="M1139,-122.29C1139,-144.21 1139,-178 1139,-178 1139,-178 702.92,-178 702.92,-178"/>
<polygon fill="black" stroke="black" points="702.92,-174.5 692.92,-178 702.92,-181.5 702.92,-174.5"/>
</g>
<!-- AuthService -->
<g id="node3" class="node">
<title>AuthService</title>
<ellipse fill="#fdb462" stroke="black" cx="1013" cy="-104" rx="59.11" ry="18"/>
<text text-anchor="middle" x="1013" y="-99.8" font-family="Times,serif" font-size="14.00">AuthService</text>
</g>
<!-- AuthService&#45;&gt;AuthModule -->
<g id="edge2" class="edge">
<title>AuthService&#45;&gt;AuthModule</title>
<path fill="none" stroke="black" d="M1013,-122.11C1013,-141.34 1013,-169 1013,-169 1013,-169 702.91,-169 702.91,-169"/>
<polygon fill="black" stroke="black" points="702.91,-165.5 692.91,-169 702.91,-172.5 702.91,-165.5"/>
</g>
<!-- DomainService -->
<g id="node4" class="node">
<title>DomainService</title>
<ellipse fill="#fdb462" stroke="black" cx="865" cy="-104" rx="71.21" ry="18"/>
<text text-anchor="middle" x="865" y="-99.8" font-family="Times,serif" font-size="14.00">DomainService</text>
</g>
<!-- DomainService&#45;&gt;AuthModule -->
<g id="edge3" class="edge">
<title>DomainService&#45;&gt;AuthModule</title>
<path fill="none" stroke="black" d="M865,-122.03C865,-138.4 865,-160 865,-160 865,-160 702.71,-160 702.71,-160"/>
<polygon fill="black" stroke="black" points="702.71,-156.5 692.71,-160 702.71,-163.5 702.71,-156.5"/>
</g>
<!-- JwtStrategy -->
<g id="node5" class="node">
<title>JwtStrategy</title>
<ellipse fill="#fdb462" stroke="black" cx="719" cy="-104" rx="56.76" ry="18"/>
<text text-anchor="middle" x="719" y="-99.8" font-family="Times,serif" font-size="14.00">JwtStrategy</text>
</g>
<!-- JwtStrategy&#45;&gt;AuthModule -->
<g id="edge4" class="edge">
<title>JwtStrategy&#45;&gt;AuthModule</title>
<path fill="none" stroke="black" d="M677.57,-116.53C677.57,-116.53 677.57,-140.85 677.57,-140.85"/>
<polygon fill="black" stroke="black" points="674.07,-140.85 677.57,-150.85 681.07,-140.85 674.07,-140.85"/>
</g>
<!-- LocalStrategy -->
<g id="node6" class="node">
<title>LocalStrategy</title>
<ellipse fill="#fdb462" stroke="black" cx="579" cy="-104" rx="65.41" ry="18"/>
<text text-anchor="middle" x="579" y="-99.8" font-family="Times,serif" font-size="14.00">LocalStrategy</text>
</g>
<!-- LocalStrategy&#45;&gt;AuthModule -->
<g id="edge5" class="edge">
<title>LocalStrategy&#45;&gt;AuthModule</title>
<path fill="none" stroke="black" d="M624.71,-116.84C624.71,-116.84 624.71,-140.52 624.71,-140.52"/>
<polygon fill="black" stroke="black" points="621.21,-140.52 624.71,-150.52 628.21,-140.52 621.21,-140.52"/>
</g>
<!-- PagePermissionService -->
<g id="node7" class="node">
<title>PagePermissionService</title>
<ellipse fill="#fdb462" stroke="black" cx="394" cy="-104" rx="101.86" ry="18"/>
<text text-anchor="middle" x="394" y="-99.8" font-family="Times,serif" font-size="14.00">PagePermissionService</text>
</g>
<!-- PagePermissionService&#45;&gt;AuthModule -->
<g id="edge6" class="edge">
<title>PagePermissionService&#45;&gt;AuthModule</title>
<path fill="none" stroke="black" d="M394,-122.03C394,-138.4 394,-160 394,-160 394,-160 595.16,-160 595.16,-160"/>
<polygon fill="black" stroke="black" points="595.16,-163.5 605.16,-160 595.16,-156.5 595.16,-163.5"/>
</g>
<!-- RoleService -->
<g id="node8" class="node">
<title>RoleService</title>
<ellipse fill="#fdb462" stroke="black" cx="216" cy="-104" rx="58.46" ry="18"/>
<text text-anchor="middle" x="216" y="-99.8" font-family="Times,serif" font-size="14.00">RoleService</text>
</g>
<!-- RoleService&#45;&gt;AuthModule -->
<g id="edge7" class="edge">
<title>RoleService&#45;&gt;AuthModule</title>
<path fill="none" stroke="black" d="M216,-122.11C216,-141.34 216,-169 216,-169 216,-169 595.1,-169 595.1,-169"/>
<polygon fill="black" stroke="black" points="595.1,-172.5 605.1,-169 595.1,-165.5 595.1,-172.5"/>
</g>
<!-- UserService -->
<g id="node9" class="node">
<title>UserService</title>
<ellipse fill="#fdb462" stroke="black" cx="82" cy="-104" rx="58.44" ry="18"/>
<text text-anchor="middle" x="82" y="-99.8" font-family="Times,serif" font-size="14.00">UserService</text>
</g>
<!-- UserService&#45;&gt;AuthModule -->
<g id="edge8" class="edge">
<title>UserService&#45;&gt;AuthModule</title>
<path fill="none" stroke="black" d="M82,-122.29C82,-144.21 82,-178 82,-178 82,-178 595.45,-178 595.45,-178"/>
<polygon fill="black" stroke="black" points="595.45,-181.5 605.45,-178 595.45,-174.5 595.45,-181.5"/>
</g>
</g>
</svg>
