<?xml version="1.0" encoding="UTF-8" standalone="no"?>
<!DOCTYPE svg PUBLIC "-//W3C//DTD SVG 1.1//EN"
 "http://www.w3.org/Graphics/SVG/1.1/DTD/svg11.dtd">
<!-- Generated by graphviz version 2.47.0 (20210316.0004)
 -->
<!-- Title: dependencies Pages: 1 -->
<svg width="1340pt" height="284pt"
 viewBox="0.00 0.00 1340.00 284.00" xmlns="http://www.w3.org/2000/svg" xmlns:xlink="http://www.w3.org/1999/xlink">
<g id="graph0" class="graph" transform="scale(1 1) rotate(0) translate(4 280)">
<title>dependencies</title>
<polygon fill="white" stroke="transparent" points="-4,4 -4,-280 1336,-280 1336,4 -4,4"/>
<text text-anchor="start" x="645.01" y="-42.4" font-family="Times-12" font-weight="bold" font-size="14.00">Legend</text>
<polygon fill="#ffffb3" stroke="transparent" points="432,-10 432,-30 452,-30 452,-10 432,-10"/>
<text text-anchor="start" x="455.63" y="-15.4" font-family="Times-12" font-size="14.00"> &#160;Declarations</text>
<polygon fill="#8dd3c7" stroke="transparent" points="545,-10 545,-30 565,-30 565,-10 545,-10"/>
<text text-anchor="start" x="568.73" y="-15.4" font-family="Times-12" font-size="14.00"> &#160;Module</text>
<polygon fill="#80b1d3" stroke="transparent" points="631,-10 631,-30 651,-30 651,-10 631,-10"/>
<text text-anchor="start" x="654.78" y="-15.4" font-family="Times-12" font-size="14.00"> &#160;Bootstrap</text>
<polygon fill="#fdb462" stroke="transparent" points="728,-10 728,-30 748,-30 748,-10 728,-10"/>
<text text-anchor="start" x="751.67" y="-15.4" font-family="Times-12" font-size="14.00"> &#160;Providers</text>
<polygon fill="#fb8072" stroke="transparent" points="824,-10 824,-30 844,-30 844,-10 824,-10"/>
<text text-anchor="start" x="847.73" y="-15.4" font-family="Times-12" font-size="14.00"> &#160;Exports</text>
<g id="clust1" class="cluster">
<title>cluster_AIQueryModule</title>
<polygon fill="none" stroke="black" stroke-dasharray="1,5" points="8,-70 8,-268 1324,-268 1324,-70 8,-70"/>
</g>
<g id="clust6" class="cluster">
<title>cluster_AIQueryModule_providers</title>
<polygon fill="none" stroke="black" points="512,-78 512,-130 1316,-130 1316,-78 512,-78"/>
</g>
<g id="clust3" class="cluster">
<title>cluster_AIQueryModule_imports</title>
<polygon fill="none" stroke="black" points="16,-78 16,-130 504,-130 504,-78 16,-78"/>
</g>
<g id="clust4" class="cluster">
<title>cluster_AIQueryModule_exports</title>
<polygon fill="none" stroke="black" points="514,-208 514,-260 642,-260 642,-208 514,-208"/>
</g>
<!-- DeviceModule -->
<g id="node1" class="node">
<title>DeviceModule</title>
<polygon fill="#8dd3c7" stroke="black" points="495.69,-122 492.69,-126 471.69,-126 468.69,-122 396.31,-122 396.31,-86 495.69,-86 495.69,-122"/>
<text text-anchor="middle" x="446" y="-99.8" font-family="Times,serif" font-size="14.00">DeviceModule</text>
</g>
<!-- AIQueryModule -->
<g id="node5" class="node">
<title>AIQueryModule</title>
<polygon fill="#8dd3c7" stroke="black" points="632.8,-187 629.8,-191 608.8,-191 605.8,-187 523.2,-187 523.2,-151 632.8,-151 632.8,-187"/>
<text text-anchor="middle" x="578" y="-164.8" font-family="Times,serif" font-size="14.00">AIQueryModule</text>
</g>
<!-- DeviceModule&#45;&gt;AIQueryModule -->
<g id="edge1" class="edge">
<title>DeviceModule&#45;&gt;AIQueryModule</title>
<path fill="none" stroke="black" d="M446,-122.01C446,-138.05 446,-159 446,-159 446,-159 513.17,-159 513.17,-159"/>
<polygon fill="black" stroke="black" points="513.17,-162.5 523.17,-159 513.17,-155.5 513.17,-162.5"/>
</g>
<!-- DeviceTypeModule -->
<g id="node2" class="node">
<title>DeviceTypeModule</title>
<polygon fill="#8dd3c7" stroke="black" points="377.96,-122 374.96,-126 353.96,-126 350.96,-122 250.04,-122 250.04,-86 377.96,-86 377.96,-122"/>
<text text-anchor="middle" x="314" y="-99.8" font-family="Times,serif" font-size="14.00">DeviceTypeModule</text>
</g>
<!-- DeviceTypeModule&#45;&gt;AIQueryModule -->
<g id="edge2" class="edge">
<title>DeviceTypeModule&#45;&gt;AIQueryModule</title>
<path fill="none" stroke="black" d="M314,-122.27C314,-140.56 314,-166 314,-166 314,-166 513.3,-166 513.3,-166"/>
<polygon fill="black" stroke="black" points="513.3,-169.5 523.3,-166 513.3,-162.5 513.3,-169.5"/>
</g>
<!-- DomainModule -->
<g id="node3" class="node">
<title>DomainModule</title>
<polygon fill="#8dd3c7" stroke="black" points="232.15,-122 229.15,-126 208.15,-126 205.15,-122 127.85,-122 127.85,-86 232.15,-86 232.15,-122"/>
<text text-anchor="middle" x="180" y="-99.8" font-family="Times,serif" font-size="14.00">DomainModule</text>
</g>
<!-- DomainModule&#45;&gt;AIQueryModule -->
<g id="edge3" class="edge">
<title>DomainModule&#45;&gt;AIQueryModule</title>
<path fill="none" stroke="black" d="M180,-122.13C180,-142.57 180,-173 180,-173 180,-173 513.08,-173 513.08,-173"/>
<polygon fill="black" stroke="black" points="513.08,-176.5 523.08,-173 513.08,-169.5 513.08,-176.5"/>
</g>
<!-- UserModule -->
<g id="node4" class="node">
<title>UserModule</title>
<polygon fill="#8dd3c7" stroke="black" points="109.98,-122 106.98,-126 85.98,-126 82.98,-122 24.02,-122 24.02,-86 109.98,-86 109.98,-122"/>
<text text-anchor="middle" x="67" y="-99.8" font-family="Times,serif" font-size="14.00">UserModule</text>
</g>
<!-- UserModule&#45;&gt;AIQueryModule -->
<g id="edge4" class="edge">
<title>UserModule&#45;&gt;AIQueryModule</title>
<path fill="none" stroke="black" d="M67,-122.01C67,-144.49 67,-180 67,-180 67,-180 513.31,-180 513.31,-180"/>
<polygon fill="black" stroke="black" points="513.31,-183.5 523.31,-180 513.31,-176.5 513.31,-183.5"/>
</g>
<!-- AIQueryService  -->
<g id="node6" class="node">
<title>AIQueryService </title>
<polygon fill="#fb8072" stroke="black" points="633.73,-252 522.27,-252 522.27,-216 633.73,-216 633.73,-252"/>
<text text-anchor="middle" x="578" y="-229.8" font-family="Times,serif" font-size="14.00">AIQueryService </text>
</g>
<!-- AIQueryModule&#45;&gt;AIQueryService  -->
<g id="edge5" class="edge">
<title>AIQueryModule&#45;&gt;AIQueryService </title>
<path fill="none" stroke="black" stroke-dasharray="5,2" d="M578,-187.11C578,-187.11 578,-205.99 578,-205.99"/>
<polygon fill="black" stroke="black" points="574.5,-205.99 578,-215.99 581.5,-205.99 574.5,-205.99"/>
</g>
<!-- AIQueryService -->
<g id="node7" class="node">
<title>AIQueryService</title>
<ellipse fill="#fdb462" stroke="black" cx="1234" cy="-104" rx="74.12" ry="18"/>
<text text-anchor="middle" x="1234" y="-99.8" font-family="Times,serif" font-size="14.00">AIQueryService</text>
</g>
<!-- AIQueryService&#45;&gt;AIQueryModule -->
<g id="edge6" class="edge">
<title>AIQueryService&#45;&gt;AIQueryModule</title>
<path fill="none" stroke="black" d="M1234,-122.01C1234,-144.49 1234,-180 1234,-180 1234,-180 642.8,-180 642.8,-180"/>
<polygon fill="black" stroke="black" points="642.8,-176.5 632.8,-180 642.8,-183.5 642.8,-176.5"/>
</g>
<!-- DeviceService -->
<g id="node8" class="node">
<title>DeviceService</title>
<ellipse fill="#fdb462" stroke="black" cx="1074" cy="-104" rx="67.17" ry="18"/>
<text text-anchor="middle" x="1074" y="-99.8" font-family="Times,serif" font-size="14.00">DeviceService</text>
</g>
<!-- DeviceService&#45;&gt;AIQueryModule -->
<g id="edge7" class="edge">
<title>DeviceService&#45;&gt;AIQueryModule</title>
<path fill="none" stroke="black" d="M1074,-122.13C1074,-142.57 1074,-173 1074,-173 1074,-173 642.98,-173 642.98,-173"/>
<polygon fill="black" stroke="black" points="642.98,-169.5 632.98,-173 642.98,-176.5 642.98,-169.5"/>
</g>
<!-- DeviceTypeService -->
<g id="node9" class="node">
<title>DeviceTypeService</title>
<ellipse fill="#fdb462" stroke="black" cx="901" cy="-104" rx="87.36" ry="18"/>
<text text-anchor="middle" x="901" y="-99.8" font-family="Times,serif" font-size="14.00">DeviceTypeService</text>
</g>
<!-- DeviceTypeService&#45;&gt;AIQueryModule -->
<g id="edge8" class="edge">
<title>DeviceTypeService&#45;&gt;AIQueryModule</title>
<path fill="none" stroke="black" d="M901,-122.27C901,-140.56 901,-166 901,-166 901,-166 642.79,-166 642.79,-166"/>
<polygon fill="black" stroke="black" points="642.79,-162.5 632.79,-166 642.79,-169.5 642.79,-162.5"/>
</g>
<!-- DomainService -->
<g id="node10" class="node">
<title>DomainService</title>
<ellipse fill="#fdb462" stroke="black" cx="725" cy="-104" rx="71.21" ry="18"/>
<text text-anchor="middle" x="725" y="-99.8" font-family="Times,serif" font-size="14.00">DomainService</text>
</g>
<!-- DomainService&#45;&gt;AIQueryModule -->
<g id="edge9" class="edge">
<title>DomainService&#45;&gt;AIQueryModule</title>
<path fill="none" stroke="black" d="M725,-122.01C725,-138.05 725,-159 725,-159 725,-159 642.74,-159 642.74,-159"/>
<polygon fill="black" stroke="black" points="642.74,-155.5 632.74,-159 642.74,-162.5 642.74,-155.5"/>
</g>
<!-- UserService -->
<g id="node11" class="node">
<title>UserService</title>
<ellipse fill="#fdb462" stroke="black" cx="578" cy="-104" rx="58.44" ry="18"/>
<text text-anchor="middle" x="578" y="-99.8" font-family="Times,serif" font-size="14.00">UserService</text>
</g>
<!-- UserService&#45;&gt;AIQueryModule -->
<g id="edge10" class="edge">
<title>UserService&#45;&gt;AIQueryModule</title>
<path fill="none" stroke="black" d="M578,-122.11C578,-122.11 578,-140.99 578,-140.99"/>
<polygon fill="black" stroke="black" points="574.5,-140.99 578,-150.99 581.5,-140.99 574.5,-140.99"/>
</g>
</g>
</svg>
