<?xml version="1.0" encoding="UTF-8" standalone="no"?>
<!DOCTYPE svg PUBLIC "-//W3C//DTD SVG 1.1//EN"
 "http://www.w3.org/Graphics/SVG/1.1/DTD/svg11.dtd">
<!-- Generated by graphviz version 2.47.0 (20210316.0004)
 -->
<!-- Title: dependencies Pages: 1 -->
<svg width="752pt" height="211pt"
 viewBox="0.00 0.00 752.00 211.00" xmlns="http://www.w3.org/2000/svg" xmlns:xlink="http://www.w3.org/1999/xlink">
<g id="graph0" class="graph" transform="scale(1 1) rotate(0) translate(4 207)">
<title>dependencies</title>
<polygon fill="white" stroke="transparent" points="-4,4 -4,-207 748,-207 748,4 -4,4"/>
<text text-anchor="start" x="351.01" y="-42.4" font-family="Times-12" font-weight="bold" font-size="14.00">Legend</text>
<polygon fill="#ffffb3" stroke="transparent" points="138,-10 138,-30 158,-30 158,-10 138,-10"/>
<text text-anchor="start" x="161.63" y="-15.4" font-family="Times-12" font-size="14.00"> &#160;Declarations</text>
<polygon fill="#8dd3c7" stroke="transparent" points="251,-10 251,-30 271,-30 271,-10 251,-10"/>
<text text-anchor="start" x="274.73" y="-15.4" font-family="Times-12" font-size="14.00"> &#160;Module</text>
<polygon fill="#80b1d3" stroke="transparent" points="337,-10 337,-30 357,-30 357,-10 337,-10"/>
<text text-anchor="start" x="360.78" y="-15.4" font-family="Times-12" font-size="14.00"> &#160;Bootstrap</text>
<polygon fill="#fdb462" stroke="transparent" points="434,-10 434,-30 454,-30 454,-10 434,-10"/>
<text text-anchor="start" x="457.67" y="-15.4" font-family="Times-12" font-size="14.00"> &#160;Providers</text>
<polygon fill="#fb8072" stroke="transparent" points="530,-10 530,-30 550,-30 550,-10 530,-10"/>
<text text-anchor="start" x="553.73" y="-15.4" font-family="Times-12" font-size="14.00"> &#160;Exports</text>
<g id="clust1" class="cluster">
<title>cluster_DeviceDataModule</title>
<polygon fill="none" stroke="black" stroke-dasharray="1,5" points="8,-70 8,-195 736,-195 736,-70 8,-70"/>
</g>
<g id="clust3" class="cluster">
<title>cluster_DeviceDataModule_imports</title>
<polygon fill="none" stroke="black" points="16,-78 16,-130 728,-130 728,-78 16,-78"/>
</g>
<!-- DeviceModule -->
<g id="node1" class="node">
<title>DeviceModule</title>
<polygon fill="#8dd3c7" stroke="black" points="719.69,-122 716.69,-126 695.69,-126 692.69,-122 620.31,-122 620.31,-86 719.69,-86 719.69,-122"/>
<text text-anchor="middle" x="670" y="-99.8" font-family="Times,serif" font-size="14.00">DeviceModule</text>
</g>
<!-- DeviceDataModule -->
<g id="node7" class="node">
<title>DeviceDataModule</title>
<polygon fill="#8dd3c7" stroke="black" points="398.62,-187 395.62,-191 374.62,-191 371.62,-187 273.38,-187 273.38,-151 398.62,-151 398.62,-187"/>
<text text-anchor="middle" x="336" y="-164.8" font-family="Times,serif" font-size="14.00">DeviceDataModule</text>
</g>
<!-- DeviceModule&#45;&gt;DeviceDataModule -->
<g id="edge1" class="edge">
<title>DeviceModule&#45;&gt;DeviceDataModule</title>
<path fill="none" stroke="black" d="M670,-122.28C670,-143.32 670,-175 670,-175 670,-175 408.82,-175 408.82,-175"/>
<polygon fill="black" stroke="black" points="408.82,-171.5 398.82,-175 408.82,-178.5 408.82,-171.5"/>
</g>
<!-- DeviceOutputModule -->
<g id="node2" class="node">
<title>DeviceOutputModule</title>
<polygon fill="#8dd3c7" stroke="black" points="602.08,-122 599.08,-126 578.08,-126 575.08,-122 463.92,-122 463.92,-86 602.08,-86 602.08,-122"/>
<text text-anchor="middle" x="533" y="-99.8" font-family="Times,serif" font-size="14.00">DeviceOutputModule</text>
</g>
<!-- DeviceOutputModule&#45;&gt;DeviceDataModule -->
<g id="edge2" class="edge">
<title>DeviceOutputModule&#45;&gt;DeviceDataModule</title>
<path fill="none" stroke="black" d="M533,-122.02C533,-139.37 533,-163 533,-163 533,-163 408.87,-163 408.87,-163"/>
<polygon fill="black" stroke="black" points="408.87,-159.5 398.87,-163 408.87,-166.5 408.87,-159.5"/>
</g>
<!-- DomainModule -->
<g id="node3" class="node">
<title>DomainModule</title>
<polygon fill="#8dd3c7" stroke="black" points="446.15,-122 443.15,-126 422.15,-126 419.15,-122 341.85,-122 341.85,-86 446.15,-86 446.15,-122"/>
<text text-anchor="middle" x="394" y="-99.8" font-family="Times,serif" font-size="14.00">DomainModule</text>
</g>
<!-- DomainModule&#45;&gt;DeviceDataModule -->
<g id="edge3" class="edge">
<title>DomainModule&#45;&gt;DeviceDataModule</title>
<path fill="none" stroke="black" d="M370.24,-122.11C370.24,-122.11 370.24,-140.99 370.24,-140.99"/>
<polygon fill="black" stroke="black" points="366.74,-140.99 370.24,-150.99 373.74,-140.99 366.74,-140.99"/>
</g>
<!-- EventModule -->
<g id="node4" class="node">
<title>EventModule</title>
<polygon fill="#8dd3c7" stroke="black" points="324.21,-122 321.21,-126 300.21,-126 297.21,-122 231.79,-122 231.79,-86 324.21,-86 324.21,-122"/>
<text text-anchor="middle" x="278" y="-99.8" font-family="Times,serif" font-size="14.00">EventModule</text>
</g>
<!-- EventModule&#45;&gt;DeviceDataModule -->
<g id="edge4" class="edge">
<title>EventModule&#45;&gt;DeviceDataModule</title>
<path fill="none" stroke="black" d="M298.65,-122.11C298.65,-122.11 298.65,-140.99 298.65,-140.99"/>
<polygon fill="black" stroke="black" points="295.15,-140.99 298.65,-150.99 302.15,-140.99 295.15,-140.99"/>
</g>
<!-- MailModule -->
<g id="node5" class="node">
<title>MailModule</title>
<polygon fill="#8dd3c7" stroke="black" points="213.99,-122 210.99,-126 189.99,-126 186.99,-122 128.01,-122 128.01,-86 213.99,-86 213.99,-122"/>
<text text-anchor="middle" x="171" y="-99.8" font-family="Times,serif" font-size="14.00">MailModule</text>
</g>
<!-- MailModule&#45;&gt;DeviceDataModule -->
<g id="edge5" class="edge">
<title>MailModule&#45;&gt;DeviceDataModule</title>
<path fill="none" stroke="black" d="M171,-122.02C171,-139.37 171,-163 171,-163 171,-163 263.15,-163 263.15,-163"/>
<polygon fill="black" stroke="black" points="263.15,-166.5 273.15,-163 263.15,-159.5 263.15,-166.5"/>
</g>
<!-- UserModule -->
<g id="node6" class="node">
<title>UserModule</title>
<polygon fill="#8dd3c7" stroke="black" points="109.98,-122 106.98,-126 85.98,-126 82.98,-122 24.02,-122 24.02,-86 109.98,-86 109.98,-122"/>
<text text-anchor="middle" x="67" y="-99.8" font-family="Times,serif" font-size="14.00">UserModule</text>
</g>
<!-- UserModule&#45;&gt;DeviceDataModule -->
<g id="edge6" class="edge">
<title>UserModule&#45;&gt;DeviceDataModule</title>
<path fill="none" stroke="black" d="M67,-122.28C67,-143.32 67,-175 67,-175 67,-175 263.27,-175 263.27,-175"/>
<polygon fill="black" stroke="black" points="263.27,-178.5 273.27,-175 263.27,-171.5 263.27,-178.5"/>
</g>
</g>
</svg>
