<?xml version="1.0" encoding="UTF-8" standalone="no"?>
<!DOCTYPE svg PUBLIC "-//W3C//DTD SVG 1.1//EN"
 "http://www.w3.org/Graphics/SVG/1.1/DTD/svg11.dtd">
<!-- Generated by graphviz version 2.47.0 (20210316.0004)
 -->
<!-- Title: dependencies Pages: 1 -->
<svg width="8961pt" height="211pt"
 viewBox="0.00 0.00 8961.00 211.00" xmlns="http://www.w3.org/2000/svg" xmlns:xlink="http://www.w3.org/1999/xlink">
<g id="graph0" class="graph" transform="scale(1 1) rotate(0) translate(4 207)">
<title>dependencies</title>
<polygon fill="white" stroke="transparent" points="-4,4 -4,-207 8957,-207 8957,4 -4,4"/>
<text text-anchor="start" x="4455.51" y="-42.4" font-family="Times-12" font-weight="bold" font-size="14.00">Legend</text>
<polygon fill="#ffffb3" stroke="transparent" points="4242.5,-10 4242.5,-30 4262.5,-30 4262.5,-10 4242.5,-10"/>
<text text-anchor="start" x="4266.13" y="-15.4" font-family="Times-12" font-size="14.00"> &#160;Declarations</text>
<polygon fill="#8dd3c7" stroke="transparent" points="4355.5,-10 4355.5,-30 4375.5,-30 4375.5,-10 4355.5,-10"/>
<text text-anchor="start" x="4379.23" y="-15.4" font-family="Times-12" font-size="14.00"> &#160;Module</text>
<polygon fill="#80b1d3" stroke="transparent" points="4441.5,-10 4441.5,-30 4461.5,-30 4461.5,-10 4441.5,-10"/>
<text text-anchor="start" x="4465.28" y="-15.4" font-family="Times-12" font-size="14.00"> &#160;Bootstrap</text>
<polygon fill="#fdb462" stroke="transparent" points="4538.5,-10 4538.5,-30 4558.5,-30 4558.5,-10 4538.5,-10"/>
<text text-anchor="start" x="4562.17" y="-15.4" font-family="Times-12" font-size="14.00"> &#160;Providers</text>
<polygon fill="#fb8072" stroke="transparent" points="4634.5,-10 4634.5,-30 4654.5,-30 4654.5,-10 4634.5,-10"/>
<text text-anchor="start" x="4658.23" y="-15.4" font-family="Times-12" font-size="14.00"> &#160;Exports</text>
<g id="clust1" class="cluster">
<title>cluster_AppModule</title>
<polygon fill="none" stroke="black" stroke-dasharray="1,5" points="8,-70 8,-195 8945,-195 8945,-70 8,-70"/>
</g>
<g id="clust3" class="cluster">
<title>cluster_AppModule_imports</title>
<polygon fill="none" stroke="black" points="5634,-78 5634,-130 8937,-130 8937,-78 5634,-78"/>
</g>
<g id="clust6" class="cluster">
<title>cluster_AppModule_providers</title>
<polygon fill="none" stroke="black" points="16,-78 16,-130 5626,-130 5626,-78 16,-78"/>
</g>
<!-- AuthModule -->
<g id="node1" class="node">
<title>AuthModule</title>
<polygon fill="#8dd3c7" stroke="black" points="8928.55,-122 8925.55,-126 8904.55,-126 8901.55,-122 8841.45,-122 8841.45,-86 8928.55,-86 8928.55,-122"/>
<text text-anchor="middle" x="8885" y="-99.8" font-family="Times,serif" font-size="14.00">AuthModule</text>
</g>
<!-- AppModule -->
<g id="node24" class="node">
<title>AppModule</title>
<polygon fill="#8dd3c7" stroke="black" points="5162.66,-187 5159.66,-191 5138.66,-191 5135.66,-187 5079.34,-187 5079.34,-151 5162.66,-151 5162.66,-187"/>
<text text-anchor="middle" x="5121" y="-164.8" font-family="Times,serif" font-size="14.00">AppModule</text>
</g>
<!-- AuthModule&#45;&gt;AppModule -->
<g id="edge1" class="edge">
<title>AuthModule&#45;&gt;AppModule</title>
<path fill="none" stroke="black" d="M8885,-122.2C8885,-146.36 8885,-186 8885,-186 8885,-186 5172.95,-186 5172.95,-186"/>
<polygon fill="black" stroke="black" points="5172.95,-182.5 5162.95,-186 5172.95,-189.5 5172.95,-182.5"/>
</g>
<!-- DataStorerManagerModule -->
<g id="node2" class="node">
<title>DataStorerManagerModule</title>
<polygon fill="#8dd3c7" stroke="black" points="8822.93,-122 8819.93,-126 8798.93,-126 8795.93,-122 8653.07,-122 8653.07,-86 8822.93,-86 8822.93,-122"/>
<text text-anchor="middle" x="8738" y="-99.8" font-family="Times,serif" font-size="14.00">DataStorerManagerModule</text>
</g>
<!-- DataStorerManagerModule&#45;&gt;AppModule -->
<g id="edge2" class="edge">
<title>DataStorerManagerModule&#45;&gt;AppModule</title>
<path fill="none" stroke="black" d="M8738,-122.38C8738,-146.28 8738,-185 8738,-185 8738,-185 5172.87,-185 5172.87,-185"/>
<polygon fill="black" stroke="black" points="5172.87,-181.5 5162.87,-185 5172.87,-188.5 5172.87,-181.5"/>
</g>
<!-- DeviceConnectionModule -->
<g id="node3" class="node">
<title>DeviceConnectionModule</title>
<polygon fill="#8dd3c7" stroke="black" points="8634.74,-122 8631.74,-126 8610.74,-126 8607.74,-122 8471.26,-122 8471.26,-86 8634.74,-86 8634.74,-122"/>
<text text-anchor="middle" x="8553" y="-99.8" font-family="Times,serif" font-size="14.00">DeviceConnectionModule</text>
</g>
<!-- DeviceConnectionModule&#45;&gt;AppModule -->
<g id="edge3" class="edge">
<title>DeviceConnectionModule&#45;&gt;AppModule</title>
<path fill="none" stroke="black" d="M8553,-122.32C8553,-145.66 8553,-183 8553,-183 8553,-183 5172.85,-183 5172.85,-183"/>
<polygon fill="black" stroke="black" points="5172.85,-179.5 5162.85,-183 5172.85,-186.5 5172.85,-179.5"/>
</g>
<!-- DeviceDataModule -->
<g id="node4" class="node">
<title>DeviceDataModule</title>
<polygon fill="#8dd3c7" stroke="black" points="8452.62,-122 8449.62,-126 8428.62,-126 8425.62,-122 8327.38,-122 8327.38,-86 8452.62,-86 8452.62,-122"/>
<text text-anchor="middle" x="8390" y="-99.8" font-family="Times,serif" font-size="14.00">DeviceDataModule</text>
</g>
<!-- DeviceDataModule&#45;&gt;AppModule -->
<g id="edge4" class="edge">
<title>DeviceDataModule&#45;&gt;AppModule</title>
<path fill="none" stroke="black" d="M8390,-122.09C8390,-145.13 8390,-182 8390,-182 8390,-182 5172.93,-182 5172.93,-182"/>
<polygon fill="black" stroke="black" points="5172.93,-178.5 5162.93,-182 5172.93,-185.5 5172.93,-178.5"/>
</g>
<!-- DeviceInputModule -->
<g id="node5" class="node">
<title>DeviceInputModule</title>
<polygon fill="#8dd3c7" stroke="black" points="8309.24,-122 8306.24,-126 8285.24,-126 8282.24,-122 8180.76,-122 8180.76,-86 8309.24,-86 8309.24,-122"/>
<text text-anchor="middle" x="8245" y="-99.8" font-family="Times,serif" font-size="14.00">DeviceInputModule</text>
</g>
<!-- DeviceInputModule&#45;&gt;AppModule -->
<g id="edge5" class="edge">
<title>DeviceInputModule&#45;&gt;AppModule</title>
<path fill="none" stroke="black" d="M8245,-122.25C8245,-145.02 8245,-181 8245,-181 8245,-181 5172.8,-181 5172.8,-181"/>
<polygon fill="black" stroke="black" points="5172.8,-177.5 5162.8,-181 5172.8,-184.5 5172.8,-177.5"/>
</g>
<!-- DeviceModule -->
<g id="node6" class="node">
<title>DeviceModule</title>
<polygon fill="#8dd3c7" stroke="black" points="8162.69,-122 8159.69,-126 8138.69,-126 8135.69,-122 8063.31,-122 8063.31,-86 8162.69,-86 8162.69,-122"/>
<text text-anchor="middle" x="8113" y="-99.8" font-family="Times,serif" font-size="14.00">DeviceModule</text>
</g>
<!-- DeviceModule&#45;&gt;AppModule -->
<g id="edge6" class="edge">
<title>DeviceModule&#45;&gt;AppModule</title>
<path fill="none" stroke="black" d="M8113,-122.16C8113,-144.35 8113,-179 8113,-179 8113,-179 5172.72,-179 5172.72,-179"/>
<polygon fill="black" stroke="black" points="5172.72,-175.5 5162.72,-179 5172.72,-182.5 5172.72,-175.5"/>
</g>
<!-- DeviceOutputModule -->
<g id="node7" class="node">
<title>DeviceOutputModule</title>
<polygon fill="#8dd3c7" stroke="black" points="8045.08,-122 8042.08,-126 8021.08,-126 8018.08,-122 7906.92,-122 7906.92,-86 8045.08,-86 8045.08,-122"/>
<text text-anchor="middle" x="7976" y="-99.8" font-family="Times,serif" font-size="14.00">DeviceOutputModule</text>
</g>
<!-- DeviceOutputModule&#45;&gt;AppModule -->
<g id="edge7" class="edge">
<title>DeviceOutputModule&#45;&gt;AppModule</title>
<path fill="none" stroke="black" d="M7976,-122.29C7976,-144.21 7976,-178 7976,-178 7976,-178 5172.74,-178 5172.74,-178"/>
<polygon fill="black" stroke="black" points="5172.74,-174.5 5162.74,-178 5172.74,-181.5 5172.74,-174.5"/>
</g>
<!-- DeviceTypeCategoryModule -->
<g id="node8" class="node">
<title>DeviceTypeCategoryModule</title>
<polygon fill="#8dd3c7" stroke="black" points="7888.78,-122 7885.78,-126 7864.78,-126 7861.78,-122 7709.22,-122 7709.22,-86 7888.78,-86 7888.78,-122"/>
<text text-anchor="middle" x="7799" y="-99.8" font-family="Times,serif" font-size="14.00">DeviceTypeCategoryModule</text>
</g>
<!-- DeviceTypeCategoryModule&#45;&gt;AppModule -->
<g id="edge8" class="edge">
<title>DeviceTypeCategoryModule&#45;&gt;AppModule</title>
<path fill="none" stroke="black" d="M7799,-122.17C7799,-143.5 7799,-176 7799,-176 7799,-176 5172.8,-176 5172.8,-176"/>
<polygon fill="black" stroke="black" points="5172.8,-172.5 5162.8,-176 5172.8,-179.5 5172.8,-172.5"/>
</g>
<!-- DeviceTypeModule -->
<g id="node9" class="node">
<title>DeviceTypeModule</title>
<polygon fill="#8dd3c7" stroke="black" points="7690.96,-122 7687.96,-126 7666.96,-126 7663.96,-122 7563.04,-122 7563.04,-86 7690.96,-86 7690.96,-122"/>
<text text-anchor="middle" x="7627" y="-99.8" font-family="Times,serif" font-size="14.00">DeviceTypeModule</text>
</g>
<!-- DeviceTypeModule&#45;&gt;AppModule -->
<g id="edge9" class="edge">
<title>DeviceTypeModule&#45;&gt;AppModule</title>
<path fill="none" stroke="black" d="M7627,-122.28C7627,-143.32 7627,-175 7627,-175 7627,-175 5172.66,-175 5172.66,-175"/>
<polygon fill="black" stroke="black" points="5172.66,-171.5 5162.66,-175 5172.66,-178.5 5172.66,-171.5"/>
</g>
<!-- DomainModule -->
<g id="node10" class="node">
<title>DomainModule</title>
<polygon fill="#8dd3c7" stroke="black" points="7545.15,-122 7542.15,-126 7521.15,-126 7518.15,-122 7440.85,-122 7440.85,-86 7545.15,-86 7545.15,-122"/>
<text text-anchor="middle" x="7493" y="-99.8" font-family="Times,serif" font-size="14.00">DomainModule</text>
</g>
<!-- DomainModule&#45;&gt;AppModule -->
<g id="edge10" class="edge">
<title>DomainModule&#45;&gt;AppModule</title>
<path fill="none" stroke="black" d="M7493,-122.03C7493,-142.77 7493,-174 7493,-174 7493,-174 5172.67,-174 5172.67,-174"/>
<polygon fill="black" stroke="black" points="5172.67,-170.5 5162.67,-174 5172.67,-177.5 5172.67,-170.5"/>
</g>
<!-- EventModule -->
<g id="node11" class="node">
<title>EventModule</title>
<polygon fill="#8dd3c7" stroke="black" points="7423.21,-122 7420.21,-126 7399.21,-126 7396.21,-122 7330.79,-122 7330.79,-86 7423.21,-86 7423.21,-122"/>
<text text-anchor="middle" x="7377" y="-99.8" font-family="Times,serif" font-size="14.00">EventModule</text>
</g>
<!-- EventModule&#45;&gt;AppModule -->
<g id="edge11" class="edge">
<title>EventModule&#45;&gt;AppModule</title>
<path fill="none" stroke="black" d="M7377,-122.22C7377,-142.37 7377,-172 7377,-172 7377,-172 5173.06,-172 5173.06,-172"/>
<polygon fill="black" stroke="black" points="5173.06,-168.5 5163.06,-172 5173.06,-175.5 5173.06,-168.5"/>
</g>
<!-- ExtraModule -->
<g id="node12" class="node">
<title>ExtraModule</title>
<polygon fill="#8dd3c7" stroke="black" points="7312.87,-122 7309.87,-126 7288.87,-126 7285.87,-122 7223.13,-122 7223.13,-86 7312.87,-86 7312.87,-122"/>
<text text-anchor="middle" x="7268" y="-99.8" font-family="Times,serif" font-size="14.00">ExtraModule</text>
</g>
<!-- ExtraModule&#45;&gt;AppModule -->
<g id="edge12" class="edge">
<title>ExtraModule&#45;&gt;AppModule</title>
<path fill="none" stroke="black" d="M7268,-122.31C7268,-142.15 7268,-171 7268,-171 7268,-171 5172.92,-171 5172.92,-171"/>
<polygon fill="black" stroke="black" points="5172.92,-167.5 5162.92,-171 5172.92,-174.5 5172.92,-167.5"/>
</g>
<!-- MailModule -->
<g id="node13" class="node">
<title>MailModule</title>
<polygon fill="#8dd3c7" stroke="black" points="7204.99,-122 7201.99,-126 7180.99,-126 7177.99,-122 7119.01,-122 7119.01,-86 7204.99,-86 7204.99,-122"/>
<text text-anchor="middle" x="7162" y="-99.8" font-family="Times,serif" font-size="14.00">MailModule</text>
</g>
<!-- MailModule&#45;&gt;AppModule -->
<g id="edge13" class="edge">
<title>MailModule&#45;&gt;AppModule</title>
<path fill="none" stroke="black" d="M7162,-122.11C7162,-141.34 7162,-169 7162,-169 7162,-169 5172.69,-169 5172.69,-169"/>
<polygon fill="black" stroke="black" points="5172.69,-165.5 5162.69,-169 5172.69,-172.5 5172.69,-165.5"/>
</g>
<!-- PagePermissionModule -->
<g id="node14" class="node">
<title>PagePermissionModule</title>
<polygon fill="#8dd3c7" stroke="black" points="7101.48,-122 7098.48,-126 7077.48,-126 7074.48,-122 6952.52,-122 6952.52,-86 7101.48,-86 7101.48,-122"/>
<text text-anchor="middle" x="7027" y="-99.8" font-family="Times,serif" font-size="14.00">PagePermissionModule</text>
</g>
<!-- PagePermissionModule&#45;&gt;AppModule -->
<g id="edge14" class="edge">
<title>PagePermissionModule&#45;&gt;AppModule</title>
<path fill="none" stroke="black" d="M7027,-122.17C7027,-141.09 7027,-168 7027,-168 7027,-168 5173.03,-168 5173.03,-168"/>
<polygon fill="black" stroke="black" points="5173.03,-164.5 5163.03,-168 5173.03,-171.5 5173.03,-164.5"/>
</g>
<!-- PowerSchedulerModule -->
<g id="node15" class="node">
<title>PowerSchedulerModule</title>
<polygon fill="#8dd3c7" stroke="black" points="6934.79,-122 6931.79,-126 6910.79,-126 6907.79,-122 6783.21,-122 6783.21,-86 6934.79,-86 6934.79,-122"/>
<text text-anchor="middle" x="6859" y="-99.8" font-family="Times,serif" font-size="14.00">PowerSchedulerModule</text>
</g>
<!-- PowerSchedulerModule&#45;&gt;AppModule -->
<g id="edge15" class="edge">
<title>PowerSchedulerModule&#45;&gt;AppModule</title>
<path fill="none" stroke="black" d="M6859,-122.22C6859,-140.83 6859,-167 6859,-167 6859,-167 5172.67,-167 5172.67,-167"/>
<polygon fill="black" stroke="black" points="5172.67,-163.5 5162.67,-167 5172.67,-170.5 5172.67,-163.5"/>
</g>
<!-- RepairItemModule -->
<g id="node16" class="node">
<title>RepairItemModule</title>
<polygon fill="#8dd3c7" stroke="black" points="6765.02,-122 6762.02,-126 6741.02,-126 6738.02,-122 6642.98,-122 6642.98,-86 6765.02,-86 6765.02,-122"/>
<text text-anchor="middle" x="6704" y="-99.8" font-family="Times,serif" font-size="14.00">RepairItemModule</text>
</g>
<!-- RepairItemModule&#45;&gt;AppModule -->
<g id="edge16" class="edge">
<title>RepairItemModule&#45;&gt;AppModule</title>
<path fill="none" stroke="black" d="M6704,-122.3C6704,-140.27 6704,-165 6704,-165 6704,-165 5172.93,-165 5172.93,-165"/>
<polygon fill="black" stroke="black" points="5172.93,-161.5 5162.93,-165 5172.93,-168.5 5172.93,-161.5"/>
</g>
<!-- RepairOrderHistoryModule -->
<g id="node17" class="node">
<title>RepairOrderHistoryModule</title>
<polygon fill="#8dd3c7" stroke="black" points="6624.5,-122 6621.5,-126 6600.5,-126 6597.5,-122 6453.5,-122 6453.5,-86 6624.5,-86 6624.5,-122"/>
<text text-anchor="middle" x="6539" y="-99.8" font-family="Times,serif" font-size="14.00">RepairOrderHistoryModule</text>
</g>
<!-- RepairOrderHistoryModule&#45;&gt;AppModule -->
<g id="edge17" class="edge">
<title>RepairOrderHistoryModule&#45;&gt;AppModule</title>
<path fill="none" stroke="black" d="M6539,-122C6539,-139.68 6539,-164 6539,-164 6539,-164 5172.67,-164 5172.67,-164"/>
<polygon fill="black" stroke="black" points="5172.67,-160.5 5162.67,-164 5172.67,-167.5 5172.67,-160.5"/>
</g>
<!-- RepairOrderModule -->
<g id="node18" class="node">
<title>RepairOrderModule</title>
<polygon fill="#8dd3c7" stroke="black" points="6434.51,-122 6431.51,-126 6410.51,-126 6407.51,-122 6305.49,-122 6305.49,-86 6434.51,-86 6434.51,-122"/>
<text text-anchor="middle" x="6370" y="-99.8" font-family="Times,serif" font-size="14.00">RepairOrderModule</text>
</g>
<!-- RepairOrderModule&#45;&gt;AppModule -->
<g id="edge18" class="edge">
<title>RepairOrderModule&#45;&gt;AppModule</title>
<path fill="none" stroke="black" d="M6370,-122.02C6370,-139.37 6370,-163 6370,-163 6370,-163 5172.91,-163 5172.91,-163"/>
<polygon fill="black" stroke="black" points="5172.91,-159.5 5162.91,-163 5172.91,-166.5 5172.91,-159.5"/>
</g>
<!-- RepairRecordModule -->
<g id="node19" class="node">
<title>RepairRecordModule</title>
<polygon fill="#8dd3c7" stroke="black" points="6287.79,-122 6284.79,-126 6263.79,-126 6260.79,-122 6150.21,-122 6150.21,-86 6287.79,-86 6287.79,-122"/>
<text text-anchor="middle" x="6219" y="-99.8" font-family="Times,serif" font-size="14.00">RepairRecordModule</text>
</g>
<!-- RepairRecordModule&#45;&gt;AppModule -->
<g id="edge19" class="edge">
<title>RepairRecordModule&#45;&gt;AppModule</title>
<path fill="none" stroke="black" d="M6219,-122.04C6219,-138.73 6219,-161 6219,-161 6219,-161 5172.7,-161 5172.7,-161"/>
<polygon fill="black" stroke="black" points="5172.7,-157.5 5162.7,-161 5172.7,-164.5 5172.7,-157.5"/>
</g>
<!-- RepairUserRecordModule -->
<g id="node20" class="node">
<title>RepairUserRecordModule</title>
<polygon fill="#8dd3c7" stroke="black" points="6131.72,-122 6128.72,-126 6107.72,-126 6104.72,-122 5968.28,-122 5968.28,-86 6131.72,-86 6131.72,-122"/>
<text text-anchor="middle" x="6050" y="-99.8" font-family="Times,serif" font-size="14.00">RepairUserRecordModule</text>
</g>
<!-- RepairUserRecordModule&#45;&gt;AppModule -->
<g id="edge20" class="edge">
<title>RepairUserRecordModule&#45;&gt;AppModule</title>
<path fill="none" stroke="black" d="M6050,-122.03C6050,-138.4 6050,-160 6050,-160 6050,-160 5172.72,-160 5172.72,-160"/>
<polygon fill="black" stroke="black" points="5172.72,-156.5 5162.72,-160 5172.72,-163.5 5172.72,-156.5"/>
</g>
<!-- RoleModule -->
<g id="node21" class="node">
<title>RoleModule</title>
<polygon fill="#8dd3c7" stroke="black" points="5949.99,-122 5946.99,-126 5925.99,-126 5922.99,-122 5864.01,-122 5864.01,-86 5949.99,-86 5949.99,-122"/>
<text text-anchor="middle" x="5907" y="-99.8" font-family="Times,serif" font-size="14.00">RoleModule</text>
</g>
<!-- RoleModule&#45;&gt;AppModule -->
<g id="edge21" class="edge">
<title>RoleModule&#45;&gt;AppModule</title>
<path fill="none" stroke="black" d="M5907,-122.28C5907,-137.95 5907,-158 5907,-158 5907,-158 5172.7,-158 5172.7,-158"/>
<polygon fill="black" stroke="black" points="5172.7,-154.5 5162.7,-158 5172.7,-161.5 5172.7,-154.5"/>
</g>
<!-- SettingModule -->
<g id="node22" class="node">
<title>SettingModule</title>
<polygon fill="#8dd3c7" stroke="black" points="5845.72,-122 5842.72,-126 5821.72,-126 5818.72,-122 5746.28,-122 5746.28,-86 5845.72,-86 5845.72,-122"/>
<text text-anchor="middle" x="5796" y="-99.8" font-family="Times,serif" font-size="14.00">SettingModule</text>
</g>
<!-- SettingModule&#45;&gt;AppModule -->
<g id="edge22" class="edge">
<title>SettingModule&#45;&gt;AppModule</title>
<path fill="none" stroke="black" d="M5796,-122.24C5796,-137.57 5796,-157 5796,-157 5796,-157 5172.71,-157 5172.71,-157"/>
<polygon fill="black" stroke="black" points="5172.71,-153.5 5162.71,-157 5172.71,-160.5 5172.71,-153.5"/>
</g>
<!-- UserModule -->
<g id="node23" class="node">
<title>UserModule</title>
<polygon fill="#8dd3c7" stroke="black" points="5727.98,-122 5724.98,-126 5703.98,-126 5700.98,-122 5642.02,-122 5642.02,-86 5727.98,-86 5727.98,-122"/>
<text text-anchor="middle" x="5685" y="-99.8" font-family="Times,serif" font-size="14.00">UserModule</text>
</g>
<!-- UserModule&#45;&gt;AppModule -->
<g id="edge23" class="edge">
<title>UserModule&#45;&gt;AppModule</title>
<path fill="none" stroke="black" d="M5685,-122.19C5685,-137.18 5685,-156 5685,-156 5685,-156 5172.93,-156 5172.93,-156"/>
<polygon fill="black" stroke="black" points="5172.93,-152.5 5162.93,-156 5172.93,-159.5 5172.93,-152.5"/>
</g>
<!-- AppService -->
<g id="node25" class="node">
<title>AppService</title>
<ellipse fill="#fdb462" stroke="black" cx="5561" cy="-104" rx="56.74" ry="18"/>
<text text-anchor="middle" x="5561" y="-99.8" font-family="Times,serif" font-size="14.00">AppService</text>
</g>
<!-- AppService&#45;&gt;AppModule -->
<g id="edge24" class="edge">
<title>AppService&#45;&gt;AppModule</title>
<path fill="none" stroke="black" d="M5561,-122.05C5561,-136.37 5561,-154 5561,-154 5561,-154 5172.79,-154 5172.79,-154"/>
<polygon fill="black" stroke="black" points="5172.79,-150.5 5162.79,-154 5172.79,-157.5 5172.79,-150.5"/>
</g>
<!-- AutoRunService -->
<g id="node26" class="node">
<title>AutoRunService</title>
<ellipse fill="#fdb462" stroke="black" cx="5411" cy="-104" rx="75.3" ry="18"/>
<text text-anchor="middle" x="5411" y="-99.8" font-family="Times,serif" font-size="14.00">AutoRunService</text>
</g>
<!-- AutoRunService&#45;&gt;AppModule -->
<g id="edge25" class="edge">
<title>AutoRunService&#45;&gt;AppModule</title>
<path fill="none" stroke="black" d="M5411,-122.25C5411,-136.18 5411,-153 5411,-153 5411,-153 5172.86,-153 5172.86,-153"/>
<polygon fill="black" stroke="black" points="5172.86,-149.5 5162.86,-153 5172.86,-156.5 5172.86,-149.5"/>
</g>
<!-- DataStorerManager -->
<g id="node27" class="node">
<title>DataStorerManager</title>
<ellipse fill="#fdb462" stroke="black" cx="5230" cy="-104" rx="87.36" ry="18"/>
<text text-anchor="middle" x="5230" y="-99.8" font-family="Times,serif" font-size="14.00">DataStorerManager</text>
</g>
<!-- DataStorerManager&#45;&gt;AppModule -->
<g id="edge26" class="edge">
<title>DataStorerManager&#45;&gt;AppModule</title>
<path fill="none" stroke="black" d="M5152.83,-112.5C5152.83,-112.5 5152.83,-140.91 5152.83,-140.91"/>
<polygon fill="black" stroke="black" points="5149.33,-140.91 5152.83,-150.91 5156.33,-140.91 5149.33,-140.91"/>
</g>
<!-- DeviceConnectionService -->
<g id="node28" class="node">
<title>DeviceConnectionService</title>
<ellipse fill="#fdb462" stroke="black" cx="5013" cy="-104" rx="111.72" ry="18"/>
<text text-anchor="middle" x="5013" y="-99.8" font-family="Times,serif" font-size="14.00">DeviceConnectionService</text>
</g>
<!-- DeviceConnectionService&#45;&gt;AppModule -->
<g id="edge27" class="edge">
<title>DeviceConnectionService&#45;&gt;AppModule</title>
<path fill="none" stroke="black" d="M5102.02,-115.03C5102.02,-115.03 5102.02,-140.78 5102.02,-140.78"/>
<polygon fill="black" stroke="black" points="5098.52,-140.78 5102.02,-150.78 5105.52,-140.78 5098.52,-140.78"/>
</g>
<!-- DeviceDataPredictionService -->
<g id="node29" class="node">
<title>DeviceDataPredictionService</title>
<ellipse fill="#fdb462" stroke="black" cx="4758" cy="-104" rx="125.01" ry="18"/>
<text text-anchor="middle" x="4758" y="-99.8" font-family="Times,serif" font-size="14.00">DeviceDataPredictionService</text>
</g>
<!-- DeviceDataPredictionService&#45;&gt;AppModule -->
<g id="edge28" class="edge">
<title>DeviceDataPredictionService&#45;&gt;AppModule</title>
<path fill="none" stroke="black" d="M4758,-122.25C4758,-136.18 4758,-153 4758,-153 4758,-153 5069,-153 5069,-153"/>
<polygon fill="black" stroke="black" points="5069,-156.5 5079,-153 5069,-149.5 5069,-156.5"/>
</g>
<!-- DeviceDataService -->
<g id="node30" class="node">
<title>DeviceDataService</title>
<ellipse fill="#fdb462" stroke="black" cx="4529" cy="-104" rx="85.63" ry="18"/>
<text text-anchor="middle" x="4529" y="-99.8" font-family="Times,serif" font-size="14.00">DeviceDataService</text>
</g>
<!-- DeviceDataService&#45;&gt;AppModule -->
<g id="edge29" class="edge">
<title>DeviceDataService&#45;&gt;AppModule</title>
<path fill="none" stroke="black" d="M4529,-122.05C4529,-136.37 4529,-154 4529,-154 4529,-154 5068.9,-154 5068.9,-154"/>
<polygon fill="black" stroke="black" points="5068.9,-157.5 5078.9,-154 5068.9,-150.5 5068.9,-157.5"/>
</g>
<!-- DeviceInputService -->
<g id="node31" class="node">
<title>DeviceInputService</title>
<ellipse fill="#fdb462" stroke="black" cx="4338" cy="-104" rx="87.94" ry="18"/>
<text text-anchor="middle" x="4338" y="-99.8" font-family="Times,serif" font-size="14.00">DeviceInputService</text>
</g>
<!-- DeviceInputService&#45;&gt;AppModule -->
<g id="edge30" class="edge">
<title>DeviceInputService&#45;&gt;AppModule</title>
<path fill="none" stroke="black" d="M4338,-122.19C4338,-137.18 4338,-156 4338,-156 4338,-156 5069.18,-156 5069.18,-156"/>
<polygon fill="black" stroke="black" points="5069.18,-159.5 5079.18,-156 5069.18,-152.5 5069.18,-159.5"/>
</g>
<!-- DeviceOutputService -->
<g id="node32" class="node">
<title>DeviceOutputService</title>
<ellipse fill="#fdb462" stroke="black" cx="4138" cy="-104" rx="94.32" ry="18"/>
<text text-anchor="middle" x="4138" y="-99.8" font-family="Times,serif" font-size="14.00">DeviceOutputService</text>
</g>
<!-- DeviceOutputService&#45;&gt;AppModule -->
<g id="edge31" class="edge">
<title>DeviceOutputService&#45;&gt;AppModule</title>
<path fill="none" stroke="black" d="M4138,-122.24C4138,-137.57 4138,-157 4138,-157 4138,-157 5069.08,-157 5069.08,-157"/>
<polygon fill="black" stroke="black" points="5069.08,-160.5 5079.08,-157 5069.08,-153.5 5069.08,-160.5"/>
</g>
<!-- DeviceReportService -->
<g id="node33" class="node">
<title>DeviceReportService</title>
<ellipse fill="#fdb462" stroke="black" cx="3932" cy="-104" rx="93.74" ry="18"/>
<text text-anchor="middle" x="3932" y="-99.8" font-family="Times,serif" font-size="14.00">DeviceReportService</text>
</g>
<!-- DeviceReportService&#45;&gt;AppModule -->
<g id="edge32" class="edge">
<title>DeviceReportService&#45;&gt;AppModule</title>
<path fill="none" stroke="black" d="M3932,-122.28C3932,-137.95 3932,-158 3932,-158 3932,-158 5069.03,-158 5069.03,-158"/>
<polygon fill="black" stroke="black" points="5069.03,-161.5 5079.03,-158 5069.03,-154.5 5069.03,-161.5"/>
</g>
<!-- DeviceService -->
<g id="node34" class="node">
<title>DeviceService</title>
<ellipse fill="#fdb462" stroke="black" cx="3753" cy="-104" rx="67.17" ry="18"/>
<text text-anchor="middle" x="3753" y="-99.8" font-family="Times,serif" font-size="14.00">DeviceService</text>
</g>
<!-- DeviceService&#45;&gt;AppModule -->
<g id="edge33" class="edge">
<title>DeviceService&#45;&gt;AppModule</title>
<path fill="none" stroke="black" d="M3753,-122.03C3753,-138.4 3753,-160 3753,-160 3753,-160 5069.31,-160 5069.31,-160"/>
<polygon fill="black" stroke="black" points="5069.31,-163.5 5079.31,-160 5069.31,-156.5 5069.31,-163.5"/>
</g>
<!-- DeviceTypeCategoryService -->
<g id="node35" class="node">
<title>DeviceTypeCategoryService</title>
<ellipse fill="#fdb462" stroke="black" cx="3545" cy="-104" rx="122.65" ry="18"/>
<text text-anchor="middle" x="3545" y="-99.8" font-family="Times,serif" font-size="14.00">DeviceTypeCategoryService</text>
</g>
<!-- DeviceTypeCategoryService&#45;&gt;AppModule -->
<g id="edge34" class="edge">
<title>DeviceTypeCategoryService&#45;&gt;AppModule</title>
<path fill="none" stroke="black" d="M3545,-122.04C3545,-138.73 3545,-161 3545,-161 3545,-161 5069.25,-161 5069.25,-161"/>
<polygon fill="black" stroke="black" points="5069.25,-164.5 5079.25,-161 5069.25,-157.5 5069.25,-164.5"/>
</g>
<!-- DeviceTypeService -->
<g id="node36" class="node">
<title>DeviceTypeService</title>
<ellipse fill="#fdb462" stroke="black" cx="3317" cy="-104" rx="87.36" ry="18"/>
<text text-anchor="middle" x="3317" y="-99.8" font-family="Times,serif" font-size="14.00">DeviceTypeService</text>
</g>
<!-- DeviceTypeService&#45;&gt;AppModule -->
<g id="edge35" class="edge">
<title>DeviceTypeService&#45;&gt;AppModule</title>
<path fill="none" stroke="black" d="M3317,-122.02C3317,-139.37 3317,-163 3317,-163 3317,-163 5069.06,-163 5069.06,-163"/>
<polygon fill="black" stroke="black" points="5069.06,-166.5 5079.06,-163 5069.06,-159.5 5069.06,-166.5"/>
</g>
<!-- DomainService -->
<g id="node37" class="node">
<title>DomainService</title>
<ellipse fill="#fdb462" stroke="black" cx="3141" cy="-104" rx="71.21" ry="18"/>
<text text-anchor="middle" x="3141" y="-99.8" font-family="Times,serif" font-size="14.00">DomainService</text>
</g>
<!-- DomainService&#45;&gt;AppModule -->
<g id="edge36" class="edge">
<title>DomainService&#45;&gt;AppModule</title>
<path fill="none" stroke="black" d="M3141,-122C3141,-139.68 3141,-164 3141,-164 3141,-164 5069.19,-164 5069.19,-164"/>
<polygon fill="black" stroke="black" points="5069.19,-167.5 5079.19,-164 5069.19,-160.5 5069.19,-167.5"/>
</g>
<!-- EventService -->
<g id="node38" class="node">
<title>EventService</title>
<ellipse fill="#fdb462" stroke="black" cx="2989" cy="-104" rx="62.54" ry="18"/>
<text text-anchor="middle" x="2989" y="-99.8" font-family="Times,serif" font-size="14.00">EventService</text>
</g>
<!-- EventService&#45;&gt;AppModule -->
<g id="edge37" class="edge">
<title>EventService&#45;&gt;AppModule</title>
<path fill="none" stroke="black" d="M2989,-122.3C2989,-140.27 2989,-165 2989,-165 2989,-165 5068.89,-165 5068.89,-165"/>
<polygon fill="black" stroke="black" points="5068.89,-168.5 5078.89,-165 5068.89,-161.5 5068.89,-168.5"/>
</g>
<!-- InfluxdbClientService -->
<g id="node39" class="node">
<title>InfluxdbClientService</title>
<ellipse fill="#fdb462" stroke="black" cx="2812" cy="-104" rx="96.71" ry="18"/>
<text text-anchor="middle" x="2812" y="-99.8" font-family="Times,serif" font-size="14.00">InfluxdbClientService</text>
</g>
<!-- InfluxdbClientService&#45;&gt;AppModule -->
<g id="edge38" class="edge">
<title>InfluxdbClientService&#45;&gt;AppModule</title>
<path fill="none" stroke="black" d="M2812,-122.22C2812,-140.83 2812,-167 2812,-167 2812,-167 5068.95,-167 5068.95,-167"/>
<polygon fill="black" stroke="black" points="5068.95,-170.5 5078.95,-167 5068.95,-163.5 5068.95,-170.5"/>
</g>
<!-- MailService -->
<g id="node40" class="node">
<title>MailService</title>
<ellipse fill="#fdb462" stroke="black" cx="2639" cy="-104" rx="58.46" ry="18"/>
<text text-anchor="middle" x="2639" y="-99.8" font-family="Times,serif" font-size="14.00">MailService</text>
</g>
<!-- MailService&#45;&gt;AppModule -->
<g id="edge39" class="edge">
<title>MailService&#45;&gt;AppModule</title>
<path fill="none" stroke="black" d="M2639,-122.17C2639,-141.09 2639,-168 2639,-168 2639,-168 5069.22,-168 5069.22,-168"/>
<polygon fill="black" stroke="black" points="5069.22,-171.5 5079.22,-168 5069.22,-164.5 5069.22,-171.5"/>
</g>
<!-- PagePermissionService -->
<g id="node41" class="node">
<title>PagePermissionService</title>
<ellipse fill="#fdb462" stroke="black" cx="2461" cy="-104" rx="101.86" ry="18"/>
<text text-anchor="middle" x="2461" y="-99.8" font-family="Times,serif" font-size="14.00">PagePermissionService</text>
</g>
<!-- PagePermissionService&#45;&gt;AppModule -->
<g id="edge40" class="edge">
<title>PagePermissionService&#45;&gt;AppModule</title>
<path fill="none" stroke="black" d="M2461,-122.11C2461,-141.34 2461,-169 2461,-169 2461,-169 5069.22,-169 5069.22,-169"/>
<polygon fill="black" stroke="black" points="5069.22,-172.5 5079.22,-169 5069.22,-165.5 5069.22,-172.5"/>
</g>
<!-- PowerSchedulerExService -->
<g id="node42" class="node">
<title>PowerSchedulerExService</title>
<ellipse fill="#fdb462" stroke="black" cx="2227" cy="-104" rx="114" ry="18"/>
<text text-anchor="middle" x="2227" y="-99.8" font-family="Times,serif" font-size="14.00">PowerSchedulerExService</text>
</g>
<!-- PowerSchedulerExService&#45;&gt;AppModule -->
<g id="edge41" class="edge">
<title>PowerSchedulerExService&#45;&gt;AppModule</title>
<path fill="none" stroke="black" d="M2227,-122.31C2227,-142.15 2227,-171 2227,-171 2227,-171 5069.25,-171 5069.25,-171"/>
<polygon fill="black" stroke="black" points="5069.25,-174.5 5079.25,-171 5069.25,-167.5 5069.25,-174.5"/>
</g>
<!-- PowerSchedulerService -->
<g id="node43" class="node">
<title>PowerSchedulerService</title>
<ellipse fill="#fdb462" stroke="black" cx="1992" cy="-104" rx="103.05" ry="18"/>
<text text-anchor="middle" x="1992" y="-99.8" font-family="Times,serif" font-size="14.00">PowerSchedulerService</text>
</g>
<!-- PowerSchedulerService&#45;&gt;AppModule -->
<g id="edge42" class="edge">
<title>PowerSchedulerService&#45;&gt;AppModule</title>
<path fill="none" stroke="black" d="M1992,-122.22C1992,-142.37 1992,-172 1992,-172 1992,-172 5069.13,-172 5069.13,-172"/>
<polygon fill="black" stroke="black" points="5069.13,-175.5 5079.13,-172 5069.13,-168.5 5069.13,-175.5"/>
</g>
<!-- RepairItemService -->
<g id="node44" class="node">
<title>RepairItemService</title>
<ellipse fill="#fdb462" stroke="black" cx="1787" cy="-104" rx="83.36" ry="18"/>
<text text-anchor="middle" x="1787" y="-99.8" font-family="Times,serif" font-size="14.00">RepairItemService</text>
</g>
<!-- RepairItemService&#45;&gt;AppModule -->
<g id="edge43" class="edge">
<title>RepairItemService&#45;&gt;AppModule</title>
<path fill="none" stroke="black" d="M1787,-122.03C1787,-142.77 1787,-174 1787,-174 1787,-174 5069.15,-174 5069.15,-174"/>
<polygon fill="black" stroke="black" points="5069.15,-177.5 5079.15,-174 5069.15,-170.5 5069.15,-177.5"/>
</g>
<!-- RepairOrderHistoryService -->
<g id="node45" class="node">
<title>RepairOrderHistoryService</title>
<ellipse fill="#fdb462" stroke="black" cx="1568" cy="-104" rx="117.43" ry="18"/>
<text text-anchor="middle" x="1568" y="-99.8" font-family="Times,serif" font-size="14.00">RepairOrderHistoryService</text>
</g>
<!-- RepairOrderHistoryService&#45;&gt;AppModule -->
<g id="edge44" class="edge">
<title>RepairOrderHistoryService&#45;&gt;AppModule</title>
<path fill="none" stroke="black" d="M1568,-122.28C1568,-143.32 1568,-175 1568,-175 1568,-175 5069.25,-175 5069.25,-175"/>
<polygon fill="black" stroke="black" points="5069.25,-178.5 5079.25,-175 5069.25,-171.5 5069.25,-178.5"/>
</g>
<!-- RepairOrderService -->
<g id="node46" class="node">
<title>RepairOrderService</title>
<ellipse fill="#fdb462" stroke="black" cx="1345" cy="-104" rx="88.5" ry="18"/>
<text text-anchor="middle" x="1345" y="-99.8" font-family="Times,serif" font-size="14.00">RepairOrderService</text>
</g>
<!-- RepairOrderService&#45;&gt;AppModule -->
<g id="edge45" class="edge">
<title>RepairOrderService&#45;&gt;AppModule</title>
<path fill="none" stroke="black" d="M1345,-122.17C1345,-143.5 1345,-176 1345,-176 1345,-176 5069.24,-176 5069.24,-176"/>
<polygon fill="black" stroke="black" points="5069.24,-179.5 5079.24,-176 5069.24,-172.5 5069.24,-179.5"/>
</g>
<!-- RepairRecordService -->
<g id="node47" class="node">
<title>RepairRecordService</title>
<ellipse fill="#fdb462" stroke="black" cx="1145" cy="-104" rx="93.74" ry="18"/>
<text text-anchor="middle" x="1145" y="-99.8" font-family="Times,serif" font-size="14.00">RepairRecordService</text>
</g>
<!-- RepairRecordService&#45;&gt;AppModule -->
<g id="edge46" class="edge">
<title>RepairRecordService&#45;&gt;AppModule</title>
<path fill="none" stroke="black" d="M1145,-122.29C1145,-144.21 1145,-178 1145,-178 1145,-178 5069.04,-178 5069.04,-178"/>
<polygon fill="black" stroke="black" points="5069.04,-181.5 5079.04,-178 5069.04,-174.5 5069.04,-181.5"/>
</g>
<!-- RepairTypeService -->
<g id="node48" class="node">
<title>RepairTypeService</title>
<ellipse fill="#fdb462" stroke="black" cx="948" cy="-104" rx="85.65" ry="18"/>
<text text-anchor="middle" x="948" y="-99.8" font-family="Times,serif" font-size="14.00">RepairTypeService</text>
</g>
<!-- RepairTypeService&#45;&gt;AppModule -->
<g id="edge47" class="edge">
<title>RepairTypeService&#45;&gt;AppModule</title>
<path fill="none" stroke="black" d="M948,-122.16C948,-144.35 948,-179 948,-179 948,-179 5069.02,-179 5069.02,-179"/>
<polygon fill="black" stroke="black" points="5069.02,-182.5 5079.02,-179 5069.02,-175.5 5069.02,-182.5"/>
</g>
<!-- RepairUserRecordService -->
<g id="node49" class="node">
<title>RepairUserRecordService</title>
<ellipse fill="#fdb462" stroke="black" cx="733" cy="-104" rx="111.69" ry="18"/>
<text text-anchor="middle" x="733" y="-99.8" font-family="Times,serif" font-size="14.00">RepairUserRecordService</text>
</g>
<!-- RepairUserRecordService&#45;&gt;AppModule -->
<g id="edge48" class="edge">
<title>RepairUserRecordService&#45;&gt;AppModule</title>
<path fill="none" stroke="black" d="M733,-122.25C733,-145.02 733,-181 733,-181 733,-181 5069.33,-181 5069.33,-181"/>
<polygon fill="black" stroke="black" points="5069.33,-184.5 5079.33,-181 5069.33,-177.5 5069.33,-184.5"/>
</g>
<!-- RoleService -->
<g id="node50" class="node">
<title>RoleService</title>
<ellipse fill="#fdb462" stroke="black" cx="545" cy="-104" rx="58.46" ry="18"/>
<text text-anchor="middle" x="545" y="-99.8" font-family="Times,serif" font-size="14.00">RoleService</text>
</g>
<!-- RoleService&#45;&gt;AppModule -->
<g id="edge49" class="edge">
<title>RoleService&#45;&gt;AppModule</title>
<path fill="none" stroke="black" d="M545,-122.09C545,-145.13 545,-182 545,-182 545,-182 5069.33,-182 5069.33,-182"/>
<polygon fill="black" stroke="black" points="5069.33,-185.5 5079.33,-182 5069.33,-178.5 5069.33,-185.5"/>
</g>
<!-- SchedulerService -->
<g id="node51" class="node">
<title>SchedulerService</title>
<ellipse fill="#fdb462" stroke="black" cx="390" cy="-104" rx="78.71" ry="18"/>
<text text-anchor="middle" x="390" y="-99.8" font-family="Times,serif" font-size="14.00">SchedulerService</text>
</g>
<!-- SchedulerService&#45;&gt;AppModule -->
<g id="edge50" class="edge">
<title>SchedulerService&#45;&gt;AppModule</title>
<path fill="none" stroke="black" d="M390,-122.32C390,-145.66 390,-183 390,-183 390,-183 5069.02,-183 5069.02,-183"/>
<polygon fill="black" stroke="black" points="5069.02,-186.5 5079.02,-183 5069.02,-179.5 5069.02,-186.5"/>
</g>
<!-- SettingService -->
<g id="node52" class="node">
<title>SettingService</title>
<ellipse fill="#fdb462" stroke="black" cx="226" cy="-104" rx="67.21" ry="18"/>
<text text-anchor="middle" x="226" y="-99.8" font-family="Times,serif" font-size="14.00">SettingService</text>
</g>
<!-- SettingService&#45;&gt;AppModule -->
<g id="edge51" class="edge">
<title>SettingService&#45;&gt;AppModule</title>
<path fill="none" stroke="black" d="M226,-122.38C226,-146.28 226,-185 226,-185 226,-185 5069.05,-185 5069.05,-185"/>
<polygon fill="black" stroke="black" points="5069.05,-188.5 5079.05,-185 5069.05,-181.5 5069.05,-188.5"/>
</g>
<!-- UserService -->
<g id="node53" class="node">
<title>UserService</title>
<ellipse fill="#fdb462" stroke="black" cx="82" cy="-104" rx="58.44" ry="18"/>
<text text-anchor="middle" x="82" y="-99.8" font-family="Times,serif" font-size="14.00">UserService</text>
</g>
<!-- UserService&#45;&gt;AppModule -->
<g id="edge52" class="edge">
<title>UserService&#45;&gt;AppModule</title>
<path fill="none" stroke="black" d="M82,-122.2C82,-146.36 82,-186 82,-186 82,-186 5069.33,-186 5069.33,-186"/>
<polygon fill="black" stroke="black" points="5069.33,-189.5 5079.33,-186 5069.33,-182.5 5069.33,-189.5"/>
</g>
</g>
</svg>
